<?xml version="1.0" standalone="no"?>
<!DOCTYPE svg PUBLIC "-//W3C//DTD SVG 20010904//EN"
 "http://www.w3.org/TR/2001/REC-SVG-20010904/DTD/svg10.dtd">
<svg version="1.0" xmlns="http://www.w3.org/2000/svg"
 width="800.000000pt" height="800.000000pt" viewBox="0 0 800.000000 800.000000"
 preserveAspectRatio="xMidYMid meet">
<metadata>
Created by potrace 1.15, written by Peter Selinger 2001-2017
</metadata>
<g transform="translate(0.000000,800.000000) scale(0.100000,-0.100000)"
fill="#000000" stroke="none">
<path d="M3685 7994 c-391 -40 -655 -94 -970 -200 -581 -194 -1100 -518 -1545
-964 -642 -641 -1028 -1431 -1147 -2345 -26 -201 -26 -769 0 -970 118 -909
503 -1699 1137 -2336 91 -91 208 -201 260 -244 619 -512 1302 -809 2095 -912
201 -26 769 -26 970 0 482 63 923 198 1339 409 133 68 347 196 443 264 l63 45
0 1060 0 1059 230 0 230 0 0 -867 1 -868 97 100 c597 616 974 1409 1089 2290
26 201 26 769 0 970 -63 482 -190 900 -402 1320 -202 400 -426 708 -754 1035
-627 625 -1406 1009 -2296 1131 -121 17 -214 21 -475 24 -179 1 -343 1 -365
-1z m595 -1509 c106 -20 265 -68 349 -106 154 -70 334 -219 432 -359 107 -151
182 -334 230 -560 20 -92 23 -135 24 -350 0 -218 -2 -249 -18 -278 -43 -78
-140 -94 -201 -33 l-31 31 -1 228 c-1 234 -8 298 -54 486 -24 96 -94 246 -154
331 -123 172 -322 297 -551 346 -152 32 -352 37 -480 10 -337 -70 -575 -348
-661 -771 -20 -101 -27 -118 -54 -142 -39 -36 -76 -36 -235 -2 -147 31 -441
44 -577 25 -238 -34 -460 -121 -576 -226 -156 -142 -261 -340 -314 -590 -34
-164 -32 -377 5 -535 48 -206 170 -407 324 -536 213 -177 449 -293 698 -339
119 -23 345 -16 455 14 183 49 288 93 453 190 162 96 392 293 508 436 28 34
62 68 75 74 40 18 98 13 128 -10 34 -27 43 -45 66 -133 83 -326 300 -554 590
-621 98 -23 307 -31 382 -16 146 31 258 124 441 367 219 292 341 372 572 373
103 1 197 -21 267 -62 59 -34 136 -119 171 -189 52 -104 83 -296 67 -422 -7
-61 -13 -75 -39 -98 -39 -35 -87 -44 -134 -25 -60 25 -71 53 -73 186 -5 254
-80 361 -255 361 -135 0 -209 -54 -373 -270 -220 -290 -328 -384 -525 -451
-191 -67 -504 -41 -743 61 -203 87 -403 288 -504 505 l-35 75 -97 -86 c-320
-285 -632 -448 -967 -504 -242 -41 -541 -13 -748 69 -176 70 -324 155 -481
274 -281 214 -447 505 -501 878 -19 133 -19 207 0 341 48 341 176 627 369 822
120 122 252 199 455 266 64 21 152 46 196 55 177 37 468 40 674 9 52 -8 96
-13 98 -10 2 2 13 37 23 78 38 153 132 335 243 473 172 213 394 333 702 379
57 9 301 -4 385 -19z m-395 -1410 c88 -22 210 -87 292 -155 111 -92 213 -217
361 -440 198 -301 284 -378 465 -417 159 -33 232 3 501 245 211 190 335 269
481 307 119 30 281 14 445 -44 321 -113 506 -421 487 -806 -11 -203 -36 -272
-112 -300 -42 -17 -45 -17 -88 4 -28 13 -51 34 -63 56 -16 31 -17 42 -6 118
38 260 -6 456 -128 578 -99 100 -233 152 -390 153 -82 0 -103 -3 -152 -26 -83
-38 -160 -94 -276 -199 -241 -219 -342 -289 -476 -330 -136 -43 -348 -9 -494
78 -148 88 -221 168 -410 453 -112 169 -154 224 -241 311 -83 83 -121 114
-176 140 -65 32 -76 34 -170 33 -114 0 -159 -11 -265 -61 -134 -64 -212 -166
-262 -339 -32 -112 -32 -353 0 -501 17 -79 20 -108 11 -130 -35 -93 -141 -120
-208 -53 -22 23 -34 48 -45 103 -37 172 -45 374 -21 547 48 355 255 581 615
670 93 23 244 25 325 5z"/>
</g>
</svg>
